<mxfile host="app.diagrams.net" modified="2023-10-23T20:49:13.778Z" agent="Mozilla/5.0 (Macintosh; Intel Mac OS X 10_15_7) AppleWebKit/537.36 (KHTML, like Gecko) Chrome/118.0.0.0 Safari/537.36" version="22.0.6" etag="89wcisq3efwx8Awzj2rF" type="github">
  <diagram name="Page-1" id="xD-etPCxnuWD845hNXUY">
    <mxGraphModel>
      <root>
        <mxCell id="0" />
        <mxCell id="1" parent="0" />
      </root>
    </mxGraphModel>
  </diagram>
</mxfile>
